<svg xmlns="http://www.w3.org/2000/svg" version="1.1" xmlns:xlink="http://www.w3.org/1999/xlink" width="512" height="512" x="0" y="0" viewBox="0 0 128 128" style="enable-background:new 0 0 512 512" xml:space="preserve" class=""><g><g data-name="Glyph"><path d="M76.86 1.3a4.52 4.52 0 0 0-5.36 4.42v53.31a4.471 4.471 0 0 0 1.32 3.18l37.69 37.7a4.525 4.525 0 0 0 6.92-.67A64.013 64.013 0 0 0 76.86 1.3zm46.17 78.14a60.788 60.788 0 0 1-8.1 18.14 1.474 1.474 0 0 1-2.3.21L83.8 68.95a22.253 22.253 0 0 1 39.23 10.49zm-21.97-21.71a9.365 9.365 0 1 1 9.37-9.36 9.372 9.372 0 0 1-9.37 9.36z" fill="#ffffff" opacity="1" data-original="#000000" class=""></path><path d="M107.08 104.96 65.5 63.38V4.58a4.54 4.54 0 0 0-4.73-4.5 64 64 0 1 0 46.15 111.4 4.525 4.525 0 0 0 .16-6.52zM72.19 94.69A8.19 8.19 0 1 1 64 86.5a8.2 8.2 0 0 1 8.19 8.19zM28.06 39a9.365 9.365 0 1 1-9.36 9.37A9.376 9.376 0 0 1 28.06 39zM5.82 82.38a22.241 22.241 0 0 1 43.52-5.84l-29.51 29.51A60.735 60.735 0 0 1 5.82 82.38zM64 125a61.26 61.26 0 0 1-19.31-3.12 19.656 19.656 0 0 1 38.62-.01A60.932 60.932 0 0 1 64 125z" fill="#ffffff" opacity="1" data-original="#000000" class=""></path></g></g></svg>