<svg xmlns="http://www.w3.org/2000/svg" version="1.1" xmlns:xlink="http://www.w3.org/1999/xlink" width="512" height="512" x="0" y="0" viewBox="0 0 128 128" style="enable-background:new 0 0 512 512" xml:space="preserve" class=""><g><path fill="#ffffff" d="M122.6 42.9c-6.7-1.5-13.6-2.2-20.6-2.2-3.3 0-6.7.2-9.9.5-1.3-3.3-4.4-5.6-8-6-2.1-11.6-6.3-22.8-12.5-33 23.6 2.9 43.2 19 51 40.7zM126.3 64c0 6.4-1 12.6-2.8 18.4-7.5-14-18.2-25.8-31.1-34.6.2-.6.3-1.1.4-1.7 3.1-.3 6.2-.5 9.3-.5 7.5 0 15 .9 22.2 2.7 1.3 5 2 10.3 2 15.7zM116.1 98c-7.9 2.2-16.1 3.3-24.5 3.3-3.9 0-7.7-.3-11.5-.7v-.8c0-3-1.3-5.6-3.4-7.4 5.4-11.8 8.4-24.7 8.7-38.1 1.6-.4 3.1-1.2 4.2-2.3C103 61.1 114 73.7 121 88.7c-1.2 3.2-2.9 6.3-4.9 9.3zM37.6 83.6c.3-1 .5-2.1.5-3.2 0-2.4-.9-4.6-2.4-6.3 10.7-11.3 24.1-19.7 39-24.3 1.3 2.2 3.4 3.8 5.9 4.5-.3 12.7-3.1 24.9-8.2 36-.6-.1-1.2-.2-1.9-.2-4.1 0-7.6 2.5-9 6.1-8.6-3-16.6-7.3-23.9-12.6zM73.5 45.1c-16 5-30.4 14.1-41.7 26.2-1-.4-2.1-.6-3.3-.6-1.5 0-2.9.3-4.1.9-7.7-8.4-13.9-18.3-18-29.4 16.1-6.2 33.6-7.6 50.7-4 5.7 1.2 11.2 2.9 16.5 5.1-.1.5-.2 1.1-.2 1.7 0 0 .1 0 .1.1z" opacity="1" data-original="#1d75b9" class=""></path><path fill="#ffffff" d="M64 1.7h1.5c6.9 10.4 11.6 22 13.7 34.3-1.4.6-2.7 1.6-3.6 2.8-5.6-2.3-11.4-4.2-17.5-5.4-16.8-3.5-33.9-2.4-49.9 3C18.4 15.9 39.6 1.7 64 1.7zM3.7 48.6c4.2 9.8 10 18.6 16.9 26.2-1.1 1.6-1.8 3.5-1.8 5.6s.6 4 1.7 5.5c-2.8 4.4-5.2 9.2-7.2 14.1C6 89.9 1.7 77.4 1.7 64c0-5.3.7-10.5 2-15.4zM16.8 104.5c2-5.4 4.6-10.5 7.5-15.3 1.3.6 2.7 1 4.2 1 2.5 0 4.7-.9 6.4-2.5C42.8 93.4 51.6 98 61 101.2c.3 1.8 1 3.5 2.2 4.8-4.8 6.5-10.5 12.4-17.1 17.6-11.6-3.5-21.7-10.2-29.3-19.1zM64 126.3c-4.1 0-8.1-.4-12-1.2 5.7-4.9 10.8-10.3 15.2-16.3 1.1.4 2.2.6 3.4.6 3.3 0 6.2-1.7 8-4.2 4.3.6 8.7.9 13.2.9 6.7 0 13.4-.7 19.9-2.1-11.6 13.6-28.6 22.3-47.7 22.3z" opacity="1" data-original="#1d75b9" class=""></path></g></svg>