<svg width="1383" height="692" viewBox="0 0 1383 692" fill="none" xmlns="http://www.w3.org/2000/svg">
<g opacity="0.05" clip-path="url(#clip0_1120_5757)">
<path d="M691.148 461.5C945.379 461.5 1151.94 255.522 1152.88 1.49796L1109.48 1.49795C1108.53 231.571 921.077 418.079 691.169 418.079C461.261 418.079 272.441 230.229 272.441 -0.257155L229.412 -0.257159C229.412 254.201 436.339 461.5 691.169 461.5L691.148 461.5Z" fill="white"></path>
<path d="M691.149 576.479C1008.62 576.479 1266.8 318.863 1267.75 1.61626L1224.72 1.61625C1223.77 294.932 984.671 533.45 691.149 533.45C397.626 533.45 157.559 293.962 157.559 -0.138875L114.53 -0.138878C114.53 317.933 373.097 576.5 691.169 576.5L691.149 576.479Z" fill="white"></path>
<path d="M691.521 691.5C1072.24 691.5 1382.05 382.244 1383 1.75519L1339.6 1.75519C1338.63 358.665 1047.91 648.471 691.149 648.471C334.384 648.471 42.6781 357.343 42.6781 3.68916e-05L-0.35088 3.31299e-05C-0.371561 381.294 309.834 691.5 691.521 691.5Z" fill="white"></path>
</g>
<defs>
<clipPath id="clip0_1120_5757">
<rect width="1383" height="691.5" fill="white" transform="translate(1383 691.5) rotate(-180)"></rect>
</clipPath>
</defs>
</svg>