<svg width="4376" height="2187" viewBox="0 0 4376 2187" fill="none" xmlns="http://www.w3.org/2000/svg">
<g clip-path="url(#clip0_1127_6149)">
<path d="M2188.11 726.666C1384.06 726.666 730.787 1378.11 727.783 2181.51H865.046C868.05 1453.86 1460.92 863.994 2188.05 863.994C2915.18 863.994 3512.35 1458.1 3512.35 2187.06H3648.44C3648.44 1382.29 2993.99 726.666 2188.05 726.666H2188.11Z" fill="white"></path>
<path d="M2188.11 363.341C1184.04 363.341 367.518 1178.1 364.514 2181.45H500.601C503.605 1253.79 1259.79 499.428 2188.11 499.428C3116.43 499.428 3875.69 1256.86 3875.69 2187.01H4011.78C4011.78 1181.04 3194.01 363.275 2188.05 363.275L2188.11 363.341Z" fill="white"></path>
<path d="M2186.93 0C982.847 0 3.00385 978.08 0 2181.45H137.263C140.332 1052.65 1059.77 136.088 2188.11 136.088C3316.45 136.088 4239.02 1056.83 4239.02 2187H4375.11C4375.18 981.084 3394.09 0 2186.93 0Z" fill="white"></path>
</g>
<defs>
<clipPath id="clip0_1127_6149">
<rect width="4375.18" height="2187" fill="white"></rect>
</clipPath>
</defs>
</svg>