<svg width="121" height="44" viewBox="0 0 121 44" fill="none" xmlns="http://www.w3.org/2000/svg">
<path d="M33.3434 0H10.4487C4.67806 0 0 4.70026 0 10.4983V33.5017C0 39.2997 4.67806 44 10.4487 44H33.3434C39.114 44 43.7921 39.2997 43.7921 33.5017V10.4983C43.7921 4.70026 39.114 0 33.3434 0Z" fill="#2B2D42"></path>
<path d="M13.4187 21.9913V11.3336C13.4187 9.61549 14.803 8.22461 16.513 8.22461H27.1203C29.8804 8.22461 31.2604 11.5748 29.3104 13.5341L18.7031 24.1917C16.753 26.151 13.4187 24.7644 13.4187 21.9913Z" fill="#1CFF96"></path>
<path d="M13.4189 33.2901V22.6325C13.4189 20.9143 14.8033 19.5234 16.5133 19.5234H27.1206C29.8806 19.5234 31.2606 22.8736 29.3106 24.8329L18.7033 35.4906C16.7533 37.4498 13.4189 36.0633 13.4189 33.2901Z" fill="#00E67B"></path>
<path d="M18.7028 24.1913L23.3486 19.5234H16.517C14.9184 19.5234 13.5984 20.7421 13.4355 22.3095C13.6798 24.863 16.8299 26.0731 18.7028 24.1913Z" fill="#00C469"></path>
<path d="M109.966 31.0003C111.356 31.0003 112.482 29.8682 112.482 28.4718C112.482 27.0754 111.356 25.9434 109.966 25.9434C108.576 25.9434 107.449 27.0754 107.449 28.4718C107.449 29.8682 108.576 31.0003 109.966 31.0003Z" fill="#00E67B"></path>
<path d="M59.8039 11.1055H56.0068V30.4498H60.3327V22.6788L67.2451 22.6596V19.0557H60.3327V14.7093H67.5573V11.1055H60.3327H59.8039Z" fill="#2B2D42"></path>
<path d="M69.1689 11.1055V14.2292H70.8827V30.4498H75.1258V14.2292V11.1055H70.8827H69.1689Z" fill="#2B2D42"></path>
<path d="M91.8765 17.6475C91.1884 16.9562 90.3602 16.4121 89.3855 16.0152C88.4107 15.6184 87.2958 15.4199 86.0471 15.4199C84.7984 15.4199 83.7345 15.6184 82.7534 16.0152C81.7659 16.4121 80.9313 16.9562 80.2368 17.6475C79.5424 18.3389 79.0136 19.139 78.6441 20.048C78.2746 20.9569 78.0898 21.9171 78.0898 22.9221V23.5302C78.0898 24.5224 78.2682 25.4633 78.6186 26.3531C78.969 27.2429 79.4914 28.043 80.1731 28.7407C80.8612 29.4385 81.6958 29.989 82.6769 30.3858C83.658 30.7827 84.7857 30.9811 86.0535 30.9811C87.3213 30.9811 88.4681 30.7827 89.4556 30.3858C90.443 29.989 91.2713 29.4385 91.9466 28.7407C92.6219 28.043 93.1379 27.2493 93.4883 26.3531C93.8387 25.4633 94.0171 24.5224 94.0171 23.5302V22.9221C94.0171 21.9171 93.8324 20.9569 93.4629 20.048C93.0934 19.139 92.5646 18.3389 91.8829 17.6475H91.8765ZM89.3473 25.3609C89.0669 25.9946 88.6528 26.4939 88.1049 26.846C87.557 27.1981 86.8753 27.3773 86.0471 27.3773C85.2189 27.3773 84.5818 27.1981 84.0148 26.846C83.4542 26.4939 83.0273 26.001 82.747 25.3609C82.4667 24.7272 82.3265 24.0167 82.3265 23.2421C82.3265 22.41 82.473 21.6803 82.7597 21.0529C83.0528 20.4256 83.4733 19.9327 84.0403 19.5679C84.6009 19.203 85.2699 19.0238 86.0471 19.0238C86.8244 19.0238 87.5124 19.203 88.0667 19.5679C88.621 19.9327 89.0415 20.4256 89.3345 21.0529C89.6276 21.6803 89.7677 22.41 89.7677 23.2421C89.7677 24.0167 89.6276 24.7272 89.3473 25.3609Z" fill="#2B2D42"></path>
<path d="M105.561 19.0555V15.9317H101.343V12.0078H97.4124V15.9317H95.1953V19.0555H97.3933L97.3805 24.7781C97.3805 26.244 97.5908 27.4026 98.0113 28.2604C98.4317 29.1181 99.0943 29.7326 99.9862 30.1039C100.878 30.4752 102.063 30.6608 103.522 30.6608H105.554V27.0569H103.42C102.751 27.0569 102.235 26.8777 101.878 26.5128C101.515 26.148 101.337 25.6231 101.337 24.9382V19.0555H105.554H105.561Z" fill="#2B2D42"></path>
</svg>