<svg width="168" height="45" viewBox="0 0 168 45" fill="none" xmlns="http://www.w3.org/2000/svg">
<path d="M148.715 31.7709L155.071 12.6348H160.993L167.528 31.7709H163.801L158.262 15.1775L159.563 15.7542H156.373L157.7 15.1775L152.34 31.7709H148.715ZM153.156 26.6854L154.305 23.5397H161.861L162.984 26.6854H153.156Z" fill="#001096"></path>
<path d="M139.022 24.4572L133.406 12.6348H137.133L141.421 21.8883L140.605 21.6261H143.03L142.162 21.8883L146.067 12.6348H149.59L144.408 24.4572H139.022ZM139.941 31.7709V23.8805H143.489V31.7709H139.941Z" fill="#001096"></path>
<path d="M115.512 31.7709L121.868 12.6348H127.79L134.324 31.7709H130.598L125.058 15.1775L126.36 15.7542H123.17L124.497 15.1775L119.136 31.7709H115.512ZM119.953 26.6854L121.102 23.5397H128.658L129.781 26.6854H119.953Z" fill="#001096"></path>
<path d="M95.2148 31.7709V12.6348H101.162L108.999 28.6777H109.841L109.331 29.1495V12.6348H112.751V31.7709H106.778L98.9417 15.728H98.0738L98.5843 15.2562V31.7709H95.2148Z" fill="#001096"></path>
<path d="M73.6328 31.7709L79.9888 12.6348H85.9109L92.4456 31.7709H88.7188L83.1796 15.1775L84.4814 15.7542H81.2907L82.618 15.1775L77.2575 31.7709H73.6328ZM78.0744 26.6854L79.223 23.5397H86.7788L87.9019 26.6854H78.0744Z" fill="#001096"></path>
<path d="M59.2665 31.876V28.4157H63.121C64.091 28.4157 64.9504 28.2672 65.6991 27.9701C66.4649 27.6555 67.1116 27.2186 67.6391 26.6594C68.1667 26.1002 68.5666 25.4448 68.8388 24.6934C69.1281 23.9244 69.2728 23.0768 69.2728 22.1506C69.2728 21.1894 69.1281 20.3331 68.8388 19.5817C68.5666 18.8127 68.1667 18.1574 67.6391 17.6156C67.1116 17.0739 66.4649 16.6632 65.6991 16.3836C64.9504 16.1039 64.091 15.9641 63.121 15.9641H59.2665V12.5039H62.8913C64.576 12.5039 66.048 12.7573 67.3073 13.2641C68.5666 13.7709 69.6131 14.4699 70.447 15.3612C71.2808 16.235 71.902 17.2399 72.3104 18.3758C72.7358 19.4943 72.9486 20.6564 72.9486 21.8623V22.439C72.9486 23.5924 72.7358 24.7283 72.3104 25.8468C71.902 26.9652 71.2808 27.9788 70.447 28.8876C69.6131 29.7963 68.5666 30.5216 67.3073 31.0633C66.048 31.6051 64.576 31.876 62.8913 31.876H59.2665ZM56.1523 31.876V12.5039H59.7771V31.876H56.1523Z" fill="#001096"></path>
<path d="M33.9197 0.140625H10.6292C4.75886 0.140625 0 4.88482 0 10.7371V33.9558C0 39.8081 4.75886 44.5523 10.6292 44.5523H33.9197C39.79 44.5523 44.5489 39.8081 44.5489 33.9558V10.7371C44.5489 4.88482 39.79 0.140625 33.9197 0.140625Z" fill="#001096"></path>
<path d="M23.5181 24.2628C23.5181 23.546 23.4601 22.8247 23.3306 22.1168C22.7768 19.0447 21.0618 16.3645 18.4983 14.5613C16.0598 12.8471 12.4066 12.1793 9.42773 12.5577V14.824H11.5848C16.6985 14.824 21.0618 18.782 21.2583 23.8799C21.4593 29.236 17.1495 33.6616 11.8171 33.6616H9.42773V34.1558C9.42773 34.9572 10.0798 35.6028 10.8792 35.6028H14.787C19.8783 34.2226 23.4958 29.61 23.5181 24.2673V24.2628Z" fill="#FF9B00"></path>
<path d="M19.3334 24.2413C19.3334 20.1095 15.9616 16.748 11.8171 16.748H9.42773V18.7605H11.6742C14.6262 18.7605 17.029 21.1558 17.029 24.0988C17.029 27.0417 14.6262 29.4371 11.6742 29.4371H9.42773V31.7345H11.8171C15.9616 31.7345 19.3334 28.373 19.3334 24.2413Z" fill="#FF9B00"></path>
<path d="M27.7832 24.2805C27.7832 23.3055 27.7028 22.3215 27.5286 21.3598C26.7739 17.1836 24.4426 13.5327 20.9546 11.0839C19.8962 10.3404 18.7529 9.72152 17.5604 9.25403C17.4622 9.21396 17.3773 9.16053 17.3014 9.09375H10.8792C10.0753 9.09375 9.42773 9.74378 9.42773 10.5407V10.6253C12.8309 10.2513 16.8369 11.0439 19.6059 12.9895C22.5847 15.0821 24.5766 18.1987 25.2197 21.7694C25.3671 22.5931 25.443 23.4301 25.4385 24.2627C25.4162 28.9287 23.0403 33.1183 19.3468 35.5893H22.7232C22.875 35.527 23.0805 35.4424 23.2323 35.3756C26.0861 32.4282 27.7698 28.4479 27.7921 24.2716L27.7832 24.2805Z" fill="#FF9B00"></path>
<path d="M15.0996 24.0985C15.0996 22.2152 13.5633 20.6836 11.6742 20.6836H9.42773V23.1991H11.9019C12.4334 23.1991 12.8666 23.631 12.8666 24.1608C12.8666 24.6907 12.4334 25.1225 11.9019 25.1225H9.42773V27.5134H11.6742C13.5633 27.5134 15.0996 25.9818 15.0996 24.0985Z" fill="#FF9B00"></path>
<path d="M36.0142 22.3451C36.0142 17.55 33.4597 13.3514 29.6367 11.0273C31.6375 13.7299 33.0086 16.8732 33.6249 20.2703C33.8661 21.6015 33.9822 22.9595 33.9777 24.3085C33.9688 26.5213 33.6294 28.694 32.9907 30.7644C34.8843 28.4759 36.0187 25.5418 36.0187 22.3451H36.0142Z" fill="#FF9B00"></path>
<path d="M31.7315 20.6068C30.9499 16.2703 28.8196 12.3879 25.6487 9.42267C24.7064 9.21342 23.7283 9.09766 22.7234 9.09766H21.4238C21.6382 9.23568 21.857 9.3737 22.0669 9.52062C25.9658 12.2632 28.5784 16.346 29.4225 21.0254C29.619 22.1028 29.7128 23.2025 29.7084 24.2933C29.695 27.4233 28.8553 30.5087 27.2878 33.2157C26.8813 33.9103 26.4303 34.5781 25.939 35.2104C27.3056 34.872 28.5918 34.3199 29.7575 33.5986C31.2536 30.7403 32.0486 27.5747 32.062 24.3067C32.0664 23.0734 31.9592 21.8312 31.7404 20.6157L31.7315 20.6068Z" fill="#FF9B00"></path>
</svg>