<svg width="94" height="36" viewBox="0 0 94 36" fill="none" xmlns="http://www.w3.org/2000/svg">
<g clip-path="url(#clip0_6556_591)">
<path d="M62.7046 8.68945C55.4848 8.68945 49.6309 14.5434 49.6309 21.7632C49.6309 28.983 55.4848 34.837 62.7046 34.837C69.9244 34.837 75.7784 28.983 75.7784 21.7632C75.7784 14.5434 69.9244 8.68945 62.7046 8.68945ZM62.7046 28.9335C58.7443 28.9335 55.5343 25.7235 55.5343 21.7632C55.5343 17.8029 58.7443 14.5929 62.7046 14.5929C66.6649 14.5929 69.875 17.8029 69.875 21.7632C69.875 25.7235 66.6649 28.9335 62.7046 28.9335Z" fill="#D40032"></path>
<path d="M42.3013 8.68945C35.0815 8.68945 29.2275 14.5434 29.2275 21.7632C29.2275 28.983 35.0815 34.837 42.3013 34.837C49.5211 34.837 55.375 28.983 55.375 21.7632C55.375 14.5434 49.5211 8.68945 42.3013 8.68945ZM42.3013 28.9335C38.341 28.9335 35.1309 25.7235 35.1309 21.7632C35.1309 17.8029 38.341 14.5929 42.3013 14.5929C46.2616 14.5929 49.4716 17.8029 49.4716 21.7632C49.4716 25.7235 46.2616 28.9335 42.3013 28.9335Z" fill="#D40032"></path>
<path d="M86.6949 28.5502C87.7485 28.5502 88.5257 28.8333 89.0266 29.4016C89.5276 29.9699 89.6781 30.7247 89.4759 31.6704C89.2692 32.6431 88.7953 33.4068 88.0562 33.9594C87.3172 34.512 86.4209 34.7906 85.3673 34.7906C84.3138 34.7906 83.5343 34.5143 83.0311 33.9594C82.5279 33.4068 82.3797 32.6431 82.5863 31.6704C82.7863 30.7247 83.258 29.9677 84.0015 29.4016C84.7428 28.8333 85.6414 28.5502 86.6949 28.5502ZM93.6384 8.60938L91.9581 16.5098L89.2692 26.2455H84.7945L86.2434 16.5098L87.9237 8.60938H93.6384Z" fill="#D40032"></path>
<path d="M26.9609 35.7057H21.1631V26.8596L22.5626 22.7218L21.1631 18.5548V0H26.9609V35.7057Z" fill="#33000B"></path>
<path d="M13.5118 8.71094C6.04942 8.71094 0 14.7604 0 22.2227C0 29.6851 6.04942 35.7345 13.5118 35.7345C20.2216 35.7345 25.7881 30.8442 26.8439 24.4331C26.9629 23.7143 26.5743 22.9753 26.5743 22.2227C26.5743 21.2905 26.9292 20.3785 26.7495 19.5002C25.4893 13.3429 20.0419 8.71094 13.5118 8.71094ZM13.3029 29.2134C9.32684 29.2134 6.10108 25.9899 6.10108 22.0116C6.10108 18.0333 9.3246 14.8098 13.3029 14.8098C17.2812 14.8098 20.5047 18.0333 20.5047 22.0116C20.5047 25.9899 17.2812 29.2134 13.3029 29.2134Z" fill="#33000B"></path>
</g>
<defs>
<clipPath id="clip0_6556_591">
<rect width="93.6384" height="35.7345" fill="white"></rect>
</clipPath>
</defs>
</svg>