<svg width="190" height="44" viewBox="0 0 190 44" fill="none" xmlns="http://www.w3.org/2000/svg">
<g clip-path="url(#clip0_6556_598)">
<path d="M33.0201 0H10.3515C4.63454 0 0 4.67229 0 10.4359V33.2891C0 39.0526 4.63454 43.7249 10.3515 43.7249H33.0201C38.7371 43.7249 43.3716 39.0526 43.3716 33.2891V10.4359C43.3716 4.67229 38.7371 0 33.0201 0Z" fill="#F83131"></path>
<path d="M27.6223 19.8633L24.3902 32.3335H17.5547L21.2367 19.8633H27.6223Z" fill="white"></path>
<path d="M35.7639 12.8594L34.1522 32.3308H26.2422L27.8845 12.8594H35.7639Z" fill="white"></path>
<path d="M11.8181 28.6719L9.28477 32.3222L8.93098 31.9876L5.48047 28.6719H11.0013H11.8181Z" fill="#064C72"></path>
<path d="M19.6153 26.0977L15.6188 32.3328H9.28125L13.2777 26.0977H19.6153Z" fill="white"></path>
<path d="M60.0593 31.7284L55.6523 12.7344H61.9523L63.5967 20.8508C63.6322 20.9999 63.6795 21.2265 63.7328 21.5247C63.786 21.8289 63.8511 22.1568 63.9221 22.5206C63.9931 22.8784 64.0581 23.2064 64.1114 23.4987H64.2178C64.2533 23.3317 64.2948 23.1349 64.3421 22.9083C64.3894 22.6816 64.4308 22.4431 64.4781 22.2046C64.5254 21.966 64.5669 21.7275 64.6142 21.4889C64.6615 21.2504 64.7029 21.0357 64.7384 20.8568L66.3533 12.7403H72.322L74.0493 20.8568C74.0847 21.0417 74.138 21.2921 74.1971 21.6022C74.2622 21.9123 74.3273 22.2403 74.4042 22.5803C74.4752 22.9202 74.5402 23.2303 74.5935 23.5046H74.6999C74.7354 23.3198 74.7768 23.111 74.8242 22.8844C74.8715 22.6578 74.9129 22.4192 74.9484 22.1807C74.9839 21.9422 75.0253 21.7096 75.0726 21.477C75.1199 21.2444 75.1614 21.0417 75.1968 20.8568L76.7289 12.7403H82.7508L78.3438 31.7344H71.689L69.8257 22.8486C69.7902 22.6101 69.7369 22.3298 69.66 22.0078C69.589 21.6857 69.5121 21.3577 69.4411 21.0297C69.3702 20.6958 69.3051 20.4155 69.2519 20.171H69.1454C69.0921 20.3916 69.033 20.66 68.9679 20.988C68.9028 21.31 68.8378 21.6321 68.7609 21.9541C68.6899 22.2761 68.6248 22.5743 68.5716 22.8486L66.7082 31.7344H60.0534L60.0593 31.7284Z" fill="#F83131"></path>
<path d="M83.8574 31.7284L90.7311 12.7344H97.7704L104.644 31.7284H98.2378L97.4451 29.0508H90.8435L90.0509 31.7284H83.8633H83.8574ZM92.0976 24.7987H96.2029L95.2978 21.7633C95.2268 21.5426 95.144 21.2742 95.0494 20.9641C94.9606 20.654 94.866 20.3201 94.7773 19.9742C94.6885 19.6283 94.5939 19.2764 94.5051 18.9365C94.4105 18.5966 94.3336 18.2984 94.2567 18.042H94.0378C93.9668 18.3759 93.8663 18.7516 93.748 19.1751C93.6297 19.5985 93.5054 20.0338 93.3753 20.487C93.2452 20.9403 93.1209 21.3637 92.9908 21.7692L92.0857 24.8047L92.0976 24.7987Z" fill="#F83131"></path>
<path d="M108.961 31.7284V12.7344H120.762C122.17 12.7344 123.341 13.0206 124.282 13.5931C125.222 14.1656 125.932 14.9111 126.406 15.8295C126.879 16.7479 127.115 17.7438 127.115 18.8113C127.115 20.0278 126.831 21.1073 126.264 22.0555C125.696 23.0037 124.933 23.7611 123.962 24.3336L127.66 31.7284H120.869L117.994 25.3533H115.007V31.7284H108.955H108.961ZM115.012 21.1311H119.254C119.727 21.1311 120.129 20.9403 120.461 20.5646C120.792 20.1889 120.952 19.6879 120.952 19.0617C120.952 18.6741 120.881 18.3342 120.733 18.042C120.585 17.7498 120.384 17.5112 120.129 17.3383C119.875 17.1653 119.579 17.0759 119.254 17.0759H115.012V21.1311Z" fill="#F83131"></path>
<path d="M132.32 31.7284V12.7344H138.372V31.7284H132.32Z" fill="#F83131"></path>
<path d="M144.531 31.7274V12.793H154.771C155.776 12.793 156.676 12.9838 157.468 13.3714C158.261 13.7591 158.888 14.3018 159.343 14.9995C159.799 15.6972 160.03 16.5202 160.03 17.4565C160.03 18.1721 159.894 18.8281 159.621 19.4185C159.349 20.0089 158.977 20.4979 158.515 20.8975C158.054 21.2971 157.527 21.5952 156.942 21.792V21.8994C157.634 22.0485 158.255 22.3288 158.805 22.7402C159.355 23.1517 159.781 23.6765 160.095 24.3146C160.408 24.9527 160.562 25.6803 160.562 26.5092C160.562 27.69 160.302 28.6621 159.781 29.4374C159.261 30.2126 158.568 30.7851 157.699 31.1608C156.829 31.5365 155.859 31.7274 154.783 31.7274H144.543H144.531ZM148.092 20.5218H153.842C154.386 20.5218 154.848 20.4204 155.226 20.2176C155.605 20.0149 155.883 19.7406 156.078 19.3887C156.267 19.0368 156.368 18.6492 156.368 18.2258C156.368 17.4148 156.155 16.8184 155.723 16.4308C155.291 16.0431 154.735 15.8523 154.037 15.8523H148.098V20.5158L148.092 20.5218ZM148.092 28.6621H154.309C155.055 28.6621 155.676 28.4534 156.155 28.0419C156.64 27.6304 156.883 26.9804 156.883 26.0977C156.883 25.5849 156.782 25.1316 156.581 24.744C156.38 24.3564 156.072 24.0582 155.664 23.8495C155.256 23.6348 154.729 23.5334 154.091 23.5334H148.092V28.668V28.6621Z" fill="#064C72"></path>
<path d="M165.914 31.7274V12.793H180.561V15.8583H169.469V20.5218H179.354V23.5871H169.469V28.668H180.72V31.7333H165.908L165.914 31.7274Z" fill="#064C72"></path>
<path d="M186.371 31.7274V12.793H189.932V31.7274H186.371Z" fill="#064C72"></path>
</g>
<defs>
<clipPath id="clip0_6556_598">
<rect width="189.932" height="43.7249" fill="white"></rect>
</clipPath>
</defs>
</svg>