<svg width="156" height="45" viewBox="0 0 156 45" fill="none" xmlns="http://www.w3.org/2000/svg">
<path d="M34.1906 0H10.7142C4.79693 0 0 4.80709 0 10.7369V34.2631C0 40.1929 4.79693 45 10.7142 45H34.1906C40.108 45 44.9049 40.1929 44.9049 34.2631V10.7369C44.9049 4.80709 40.108 0 34.1906 0Z" fill="#002061"></path>
<path d="M16.4142 35.6678L12.6655 33.4042L12.6172 10.5562C12.6172 10.5562 19.7893 9.01044 22.6195 9.4068C25.4497 9.80316 28.8599 12.1109 28.8599 12.1109" fill="#FF4A00"></path>
<path d="M32.2838 27.7546C32.2838 24.8744 30.7368 23.0291 28.144 22.5359C31.273 20.8844 31.5718 18.1847 31.5674 16.6169C31.5586 14.1595 29.0229 11.1868 26.2323 11.3629C22.1804 11.6228 16.375 12.5608 16.375 12.5608L16.4146 35.6642C16.4146 35.6642 23.3142 34.7129 27.7089 33.5326C30.9302 32.6695 32.2838 30.6392 32.2838 27.7502V27.7546Z" fill="white"></path>
<path d="M25.9989 17.3739C25.9989 16.6604 25.7484 16.1804 25.2606 15.9205C25.2123 15.8941 25.1551 15.8721 25.1024 15.8501C25.0497 15.8281 25.0013 15.8016 24.9398 15.784C24.5267 15.6651 23.9906 15.6607 23.3314 15.7708L21.7361 16.0394V18.9945C23.617 18.7303 25.41 18.422 25.9945 17.5544C25.9945 17.4928 26.0033 17.4355 26.0033 17.3695L25.9989 17.3739Z" fill="#1D1D1B"></path>
<path d="M21.7361 20.3947L21.9734 20.3551L23.4412 20.1085C24.2542 19.9719 24.8827 19.6725 25.3309 19.21C25.7396 18.7873 26.0868 18.1531 25.9638 16.9023C25.8144 17.8756 23.8323 18.5406 21.7273 18.6772V20.3903H21.7361V20.3947Z" fill="#FF4A00"></path>
<path d="M26.3898 27.3358C26.3898 26.5563 26.1173 26.0323 25.5812 25.7504C25.5285 25.724 25.4669 25.6976 25.4054 25.6755C25.3483 25.6535 25.2911 25.6227 25.2296 25.6051C24.777 25.4774 24.1925 25.4729 23.4717 25.5919L21.7314 25.8825V29.1062C23.7838 28.8156 25.7438 28.4809 26.3766 27.534C26.3766 27.468 26.3854 27.4019 26.3854 27.3314H26.3898V27.3358Z" fill="#1D1D1B"></path>
<path d="M21.7358 30.6337L21.9951 30.5896L23.5992 30.321C24.4869 30.1713 25.1725 29.8454 25.6603 29.3433C26.1086 28.8809 26.4821 28.1895 26.3547 26.8242C26.1921 27.8856 24.0299 28.6122 21.7314 28.762V30.6293V30.6337H21.7358Z" fill="#FF4A00"></path>
<path d="M16.3785 12.581L12.6211 10.5508L12.665 33.3987L16.4137 35.6668L16.3785 12.581Z" fill="#702100"></path>
<path d="M56 14H66.5414C72.8744 14 75.4966 15.4019 75.4966 19.0851V19.165C75.4966 21.5508 74.209 22.6638 71.739 23.168C74.7182 23.6722 76 24.8097 76 27.4353V27.4906C76 31.5427 72.7457 33 66.7931 33H56V14ZM62.0287 21.4955H66.3131C68.2037 21.4955 69.2397 21.2065 69.2397 20.0935V20.0382C69.2397 18.9006 68.432 18.6055 66.2371 18.6055H62.0228V21.4955H62.0287ZM62.0287 28.1731H65.8859C66.8926 28.1731 67.6535 28.1178 68.1569 28.0133C69.2163 27.8288 69.5206 27.4045 69.5206 26.6605V26.6052C69.5206 25.3877 68.789 25.0926 66.0381 25.0926H62.0287V28.167V28.1731Z" fill="#002060"></path>
<path d="M81.0057 14H87.1294V27.0356H97V33H81V14H81.0057Z" fill="#002060"></path>
<path d="M106.141 31.9367C102.832 30.5046 101 27.6466 101 23.0922V23.0369C101 20.9164 101.485 19.1156 102.4 17.6343C104.286 14.6165 107.671 13 112.05 13C114.189 13 116.098 13.3995 117.729 14.1678C121.038 15.7535 123 18.7468 123 23.0123V23.1168C123 25.3417 122.539 27.1672 121.623 28.6546C119.791 31.5925 116.429 33 111.997 33C109.757 33 107.819 32.6558 106.141 31.9428V31.9367ZM116.659 23.0922C116.659 19.9699 114.875 18.6177 111.997 18.6177C109.119 18.6177 107.341 20.0498 107.341 23.0676V23.0922C107.341 25.9809 109.072 27.3823 111.973 27.3823C114.875 27.3823 116.659 26.1346 116.659 23.0922Z" fill="#002060"></path>
<path d="M135.007 27.8595V33H129V14H135.007V21.5754L142.39 14H149.872L142.715 21.3417L150 33H143.041L138.085 24.7851L135.007 27.8595Z" fill="#002060"></path>
</svg>