<svg width="158" height="44" viewBox="0 0 158 44" fill="none" xmlns="http://www.w3.org/2000/svg">
<g clip-path="url(#clip0_6556_552)">
<path d="M35.0197 -0.125H11.9812C6.17426 -0.125 1.4668 4.598 1.4668 10.4241V33.5387C1.4668 39.3648 6.17426 44.0878 11.9812 44.0878H35.0197C40.8267 44.0878 45.5341 39.3648 45.5341 33.5387V10.4241C45.5341 4.598 40.8267 -0.125 35.0197 -0.125Z" fill="black"></path>
<path d="M23.1784 24.5646L25.7949 21.9395L15.9479 12.0599L13.3314 14.6851L23.1784 24.5646Z" fill="white"></path>
<path d="M30.8669 32.2775L33.4834 29.6523L30.5772 26.7365L27.9607 29.3617L30.8669 32.2775Z" fill="#1DD3B0"></path>
<path d="M33.4827 14.6877L30.8662 12.0625L13.3313 29.6553L15.9478 32.2805L33.4827 14.6877Z" fill="white"></path>
<path d="M35.8037 24.0289V20.3164H11.0056V24.0289H35.8037Z" fill="white"></path>
<path d="M25.2599 9.73047H21.5596V34.6105H25.2599V9.73047Z" fill="white"></path>
<path d="M35.8045 20.3164H21.5596V20.3337V24.0246V34.6127H25.2556V24.0246H35.8045V20.3164Z" fill="#1DD3B0"></path>
<path d="M146.1 32.875C144.187 32.875 142.477 32.4504 140.96 31.5924C139.444 30.7344 138.254 29.5845 137.407 28.125C136.552 26.6743 136.129 25.091 136.129 23.375C136.129 21.659 136.552 20.0845 137.407 18.625C138.262 17.1744 139.444 16.0156 140.96 15.1576C142.477 14.2996 144.196 13.875 146.1 13.875C148.005 13.875 149.724 14.2996 151.24 15.1576C152.757 16.0156 153.947 17.1655 154.793 18.625C155.648 20.0757 156.071 21.659 156.071 23.375C156.071 25.091 155.648 26.6655 154.793 28.125C153.938 29.5756 152.757 30.7344 151.24 31.5924C149.724 32.4504 148.005 32.875 146.1 32.875ZM146.1 28.5054C147.07 28.5054 147.934 28.2931 148.701 27.8596C149.459 27.4351 150.05 26.8247 150.464 26.0463C150.879 25.2679 151.09 24.3745 151.09 23.3662C151.09 22.3578 150.879 21.4644 150.464 20.686C150.05 19.9076 149.459 19.3061 148.701 18.8727C147.943 18.4481 147.079 18.227 146.1 18.227C145.122 18.227 144.258 18.4392 143.499 18.8727C142.741 19.2973 142.15 19.9076 141.736 20.686C141.322 21.4644 141.11 22.3578 141.11 23.3662C141.11 24.3745 141.322 25.2679 141.736 26.0463C142.15 26.8247 142.741 27.4262 143.499 27.8596C144.258 28.2842 145.122 28.5054 146.1 28.5054Z" fill="black"></path>
<path d="M78.2588 32.1748V14.5547H93.7932V18.8359H83.5839V21.4807H91.783V25.2577H83.5839V27.9024H93.7932V32.1836H78.2588V32.1748Z" fill="black"></path>
<path d="M100.265 32.1748L95.0898 14.5547H100.556L104.294 27.8936H106.163L109.901 14.5547H115.367L110.192 32.1748H100.265Z" fill="black"></path>
<path d="M120.833 32.1748L115.658 14.5547H121.124L124.862 27.8936H126.732L130.47 14.5547H135.936L130.761 32.1748H120.833Z" fill="black"></path>
<path d="M75.3845 14.5645H60V14.591V19.1906V32.3792H65.8276V20.2963H75.3845V14.5645Z" fill="black"></path>
</g>
<defs>
<clipPath id="clip0_6556_552">
<rect width="158" height="44" fill="white"></rect>
</clipPath>
</defs>
</svg>