<svg width="121" height="44" viewBox="0 0 121 44" fill="none" xmlns="http://www.w3.org/2000/svg">
<path d="M33.452 0.145459L10.8068 0.193102C5.09939 0.20511 0.482346 4.86255 0.4943 10.5958L0.541728 33.3437C0.553682 39.0769 5.1901 43.7149 10.8975 43.7029L33.5427 43.6552C39.2501 43.6432 43.8671 38.9858 43.8551 33.2525L43.8077 10.5047C43.7958 4.77142 39.1593 0.133451 33.452 0.145459Z" fill="#255C40"></path>
<path d="M36.9988 16.7616C36.5714 11.5885 32.2418 7.52539 26.9582 7.52539H9.50586V36.9164H26.9582C32.5224 36.9164 37.0333 32.4068 37.0333 26.839V17.6028L36.9988 16.7616Z" fill="#EC7E11"></path>
<mask id="mask0_6556_490" style="mask-type:luminance" maskUnits="userSpaceOnUse" x="9" y="7" width="29" height="30">
<path d="M36.9988 16.7616C36.5714 11.5885 32.2418 7.52539 26.9582 7.52539H9.50586V36.9164H26.9582C32.5224 36.9164 37.0333 32.4068 37.0333 26.839V17.6028L36.9988 16.7616Z" fill="white"></path>
</mask>
<g mask="url(#mask0_6556_490)">
<path d="M13.4348 37.9141C16.8225 37.9141 19.5688 35.1671 19.5688 31.7784C19.5688 28.3897 16.8225 25.6426 13.4348 25.6426C10.0471 25.6426 7.30078 28.3897 7.30078 31.7784C7.30078 35.1671 10.0471 37.9141 13.4348 37.9141Z" fill="#DF0613"></path>
<path d="M13.4348 28.7852C16.8225 28.7852 19.5688 26.0382 19.5688 22.6495C19.5688 19.2608 16.8225 16.5137 13.4348 16.5137C10.0471 16.5137 7.30078 19.2608 7.30078 22.6495C7.30078 26.0382 10.0471 28.7852 13.4348 28.7852Z" fill="#E23A11"></path>
<path d="M13.4348 19.6622C16.8225 19.6622 19.5688 16.9151 19.5688 13.5264C19.5688 10.1377 16.8225 7.39062 13.4348 7.39062C10.0471 7.39062 7.30078 10.1377 7.30078 13.5264C7.30078 16.9151 10.0471 19.6622 13.4348 19.6622Z" fill="#E96E04"></path>
<path d="M23.2688 42.879C26.6565 42.879 29.4028 40.1319 29.4028 36.7432C29.4028 33.3545 26.6565 30.6074 23.2688 30.6074C19.881 30.6074 17.1348 33.3545 17.1348 36.7432C17.1348 40.1319 19.881 42.879 23.2688 42.879Z" fill="#D55409"></path>
<path d="M23.2688 33.3477C26.6565 33.3477 29.4028 30.6007 29.4028 27.212C29.4028 23.8233 26.6565 21.0762 23.2688 21.0762C19.881 21.0762 17.1348 23.8233 17.1348 27.212C17.1348 30.6007 19.881 33.3477 23.2688 33.3477Z" fill="#E96E04"></path>
<path d="M23.2688 24.2247C26.6565 24.2247 29.4028 21.4776 29.4028 18.0889C29.4028 14.7002 26.6565 11.9531 23.2688 11.9531C19.881 11.9531 17.1348 14.7002 17.1348 18.0889C17.1348 21.4776 19.881 24.2247 23.2688 24.2247Z" fill="#F09300"></path>
<path d="M23.2688 14.1856C26.6565 14.1856 29.4028 11.4385 29.4028 8.04985C29.4028 4.66115 26.6565 1.91406 23.2688 1.91406C19.881 1.91406 17.1348 4.66115 17.1348 8.04985C17.1348 11.4385 19.881 14.1856 23.2688 14.1856Z" fill="#F4A600"></path>
<path d="M32.8977 47.1368C36.2854 47.1368 39.0317 44.3897 39.0317 41.001C39.0317 37.6123 36.2854 34.8652 32.8977 34.8652C29.51 34.8652 26.7637 37.6123 26.7637 41.001C26.7637 44.3897 29.51 47.1368 32.8977 47.1368Z" fill="#D55409"></path>
<path d="M32.8977 37.3028C36.2854 37.3028 39.0317 34.5557 39.0317 31.167C39.0317 27.7783 36.2854 25.0312 32.8977 25.0312C29.51 25.0312 26.7637 27.7783 26.7637 31.167C26.7637 34.5557 29.51 37.3028 32.8977 37.3028Z" fill="#EDA200"></path>
<path d="M32.8977 28.1778C36.2854 28.1778 39.0317 25.4307 39.0317 22.042C39.0317 18.6533 36.2854 15.9062 32.8977 15.9062C29.51 15.9062 26.7637 18.6533 26.7637 22.042C26.7637 25.4307 29.51 28.1778 32.8977 28.1778Z" fill="#F9C000"></path>
<path d="M32.8977 19.5626C36.2854 19.5626 39.0317 16.8155 39.0317 13.4268C39.0317 10.0381 36.2854 7.29102 32.8977 7.29102C29.51 7.29102 26.7637 10.0381 26.7637 13.4268C26.7637 16.8155 29.51 19.5626 32.8977 19.5626Z" fill="#FFD600"></path>
</g>
<path d="M24.2353 14.2256L24.1835 14.464L23.9634 14.451C21.3518 14.2212 18.9819 12.9767 17.2984 10.9647C15.6322 8.97003 14.8984 6.38996 15.52 3.58008C20.8165 4.1568 25.1289 9.32994 24.2397 14.2256H24.2353Z" fill="white"></path>
<path d="M72.0496 7C72.6149 7 73.0785 7.18372 73.446 7.54558C73.8134 7.90745 74 8.37509 74 8.95407V28.7286C74 29.2853 73.8134 29.7474 73.446 30.1204C73.0785 30.4934 72.6092 30.6827 72.0496 30.6827C71.4899 30.6827 71.0206 30.4934 70.6531 30.1204C70.2857 29.7474 70.0991 29.2853 70.0991 28.7286V27.1587L70.8114 27.4482C70.8114 27.7265 70.6588 28.0605 70.3592 28.4558C70.0539 28.8511 69.6468 29.2408 69.1267 29.6249C68.6066 30.009 67.996 30.3319 67.2893 30.5992C66.5826 30.8664 65.8194 31 64.9997 31C63.5071 31 62.1503 30.6214 60.9348 29.8643C59.7193 29.1072 58.7639 28.0605 58.0572 26.73C57.3505 25.3994 57 23.8685 57 22.1371C57 20.4057 57.3505 18.8469 58.0572 17.5108C58.7582 16.1802 59.708 15.1336 60.9009 14.3765C62.0938 13.6193 63.411 13.2408 64.864 13.2408C65.7968 13.2408 66.6505 13.38 67.4307 13.6583C68.2108 13.9367 68.8893 14.2874 69.4603 14.7161C70.0313 15.1447 70.4779 15.5734 70.7945 16.0132C71.1111 16.453 71.2637 16.8205 71.2637 17.1155L70.0934 17.5331V8.95407C70.0934 8.39736 70.28 7.93528 70.6475 7.56228C71.015 7.18928 71.4786 7 72.0439 7H72.0496ZM65.4859 27.4816C66.4413 27.4816 67.2724 27.2477 67.9904 26.7801C68.7027 26.3125 69.2624 25.6722 69.6638 24.8594C70.0652 24.0466 70.2631 23.1447 70.2631 22.1371C70.2631 21.1294 70.0595 20.1942 69.6638 19.3869C69.2624 18.5741 68.7027 17.9339 67.9904 17.4662C67.278 16.9986 66.4413 16.7648 65.4859 16.7648C64.5304 16.7648 63.7333 16.9986 63.0153 17.4662C62.303 17.9339 61.7433 18.5741 61.3419 19.3869C60.9405 20.1997 60.7426 21.1127 60.7426 22.1371C60.7426 23.1614 60.9405 24.0466 61.3419 24.8594C61.7433 25.6722 62.303 26.3125 63.0153 26.7801C63.7276 27.2477 64.553 27.4816 65.4859 27.4816Z" fill="#255C40"></path>
<path d="M82.9342 31.104C82.9342 32.3064 82.7038 33.3488 82.2429 34.2258C81.7821 35.1027 81.1622 35.7866 80.3832 36.272C79.6042 36.7573 78.732 37 77.7665 37C77.2398 37 76.8174 36.8235 76.4882 36.476C76.1646 36.1286 76 35.7094 76 35.224V34.8766C76 34.4133 76.1536 34.0437 76.4553 33.768C76.7571 33.4922 77.1411 33.2826 77.6074 33.1337C78.1121 32.9627 78.4687 32.7256 78.6771 32.4222C78.8856 32.1134 79.0172 31.7493 79.0721 31.3302C79.127 30.9055 79.1489 30.4642 79.1489 30.001V15.7657C79.1489 15.2141 79.3299 14.7564 79.6865 14.3868C80.0431 14.0173 80.4929 13.8298 81.0415 13.8298C81.5901 13.8298 82.04 14.0173 82.3965 14.3868C82.7531 14.7564 82.9342 15.2141 82.9342 15.7657V31.1095V31.104ZM80.9812 11.767C80.268 11.767 79.7633 11.6512 79.4671 11.4196C79.1708 11.1879 79.0282 10.7742 79.0282 10.1841V9.58292C79.0282 8.97071 79.1928 8.55154 79.5165 8.33092C79.8401 8.11031 80.3393 8 81.0141 8C81.7492 8 82.2649 8.11582 82.5611 8.34747C82.8574 8.57912 83 8.99277 83 9.58292V10.1841C83 10.7963 82.8409 11.2155 82.5282 11.4361C82.21 11.6567 81.6998 11.767 80.9812 11.767Z" fill="#255C40"></path>
<path d="M104 22.516C104 24.1893 103.597 25.6655 102.791 26.9445C101.985 28.2235 100.902 29.2147 99.5489 29.9288C98.19 30.6429 96.6756 31 95 31C93.3244 31 91.8042 30.6429 90.4511 29.9288C89.0921 29.2147 88.0154 28.2182 87.2092 26.9445C86.4031 25.6708 86 24.1947 86 22.516C86 20.8373 86.4031 19.3665 87.2092 18.0875C88.0154 16.8138 89.0979 15.8119 90.4511 15.0871C91.81 14.3624 93.3244 14 95 14C96.6756 14 98.1958 14.3624 99.5489 15.0871C100.908 15.8119 101.985 16.8138 102.791 18.0875C103.597 19.3665 104 20.8373 104 22.516ZM100.027 22.516C100.027 21.4768 99.8023 20.5708 99.3474 19.8034C98.8925 19.0361 98.2879 18.4392 97.5278 18.0129C96.7678 17.5865 95.9213 17.368 94.9942 17.368C94.0672 17.368 93.2207 17.5812 92.4607 18.0129C91.7006 18.4392 91.0902 19.0414 90.6411 19.8034C90.1862 20.5708 89.9616 21.4715 89.9616 22.516C89.9616 23.5605 90.1862 24.4292 90.6411 25.1966C91.096 25.9639 91.7006 26.5608 92.4607 26.9871C93.2207 27.4135 94.0672 27.632 94.9942 27.632C95.9213 27.632 96.762 27.4188 97.5278 26.9871C98.2879 26.5608 98.8983 25.9586 99.3474 25.1966C99.8023 24.4292 100.027 23.5392 100.027 22.516Z" fill="#255C40"></path>
<path d="M111 29.0197C111 29.5839 110.803 30.0522 110.414 30.4302C110.026 30.8082 109.545 31 108.965 31C108.386 31 107.945 30.8082 107.568 30.4302C107.191 30.0522 107 29.5839 107 29.0197V8.98025C107 8.41608 107.197 7.94781 107.586 7.56982C107.974 7.19182 108.455 7 109.035 7C109.614 7 110.084 7.19182 110.449 7.56982C110.814 7.94781 111 8.41608 111 8.98025V29.0197Z" fill="#255C40"></path>
<path d="M116.967 11.8018C116.249 11.8018 115.74 11.6849 115.442 11.4511C115.144 11.2173 115 10.7999 115 10.2043V9.59753C115 8.97967 115.166 8.55663 115.492 8.33398C115.818 8.11133 116.32 8 117 8C117.74 8 118.26 8.11689 118.558 8.35068C118.856 8.58446 119 9.00194 119 9.59753V10.2043C119 10.8221 118.84 11.2452 118.525 11.4678C118.204 11.6905 117.691 11.8018 116.967 11.8018ZM118.901 29.0462C118.901 29.6029 118.718 30.0649 118.359 30.4378C118 30.8107 117.541 31 116.994 31C116.448 31 115.989 30.8107 115.63 30.4378C115.271 30.0649 115.088 29.6029 115.088 29.0462V15.8318C115.088 15.2752 115.271 14.8132 115.63 14.4402C115.989 14.0673 116.442 13.878 116.994 13.878C117.547 13.878 118 14.0673 118.359 14.4402C118.718 14.8132 118.901 15.2752 118.901 15.8318V29.0462Z" fill="#255C40"></path>
</svg>