<svg width="124" height="44" viewBox="0 0 124 44" fill="none" xmlns="http://www.w3.org/2000/svg">
<path d="M65.4082 12.957V25.4391C65.4082 27.3706 64.8693 28.8587 63.7976 29.9035C62.7259 30.9482 61.277 31.4706 59.4569 31.4706C57.6368 31.4706 56.0262 30.9239 54.8767 29.8245C53.7271 28.7251 53.1523 27.1702 53.1523 25.1475H57.529C57.529 25.9129 57.6847 26.4899 57.99 26.8847C58.3013 27.2795 58.7444 27.4739 59.3311 27.4739C59.864 27.4739 60.2771 27.2977 60.5645 26.9515C60.8579 26.6053 61.0016 26.1012 61.0016 25.4391V12.957H65.4022H65.4082Z" fill="#3A0CA3"></path>
<path d="M82.4232 25.5676H72.4605C72.5264 26.4727 72.8138 27.1651 73.3227 27.6449C73.8316 28.1248 74.4483 28.3617 75.1907 28.3617C76.2863 28.3617 77.0527 27.894 77.4838 26.9525H82.1718C81.9323 27.9122 81.5012 28.7747 80.8725 29.54C80.2439 30.3054 79.4596 30.9067 78.5196 31.344C77.5736 31.7813 76.5198 32 75.3523 32C73.9453 32 72.694 31.6963 71.5924 31.0828C70.4967 30.4754 69.6345 29.6008 69.0179 28.471C68.4012 27.3412 68.0898 26.0171 68.0898 24.4986C68.0898 22.9801 68.3952 21.6621 69.0059 20.5262C69.6166 19.3965 70.4668 18.5218 71.5684 17.9144C72.6641 17.307 73.9274 17.0033 75.3523 17.0033C76.7773 17.0033 77.9807 17.3009 79.0584 17.8901C80.1421 18.4854 80.9863 19.3236 81.597 20.423C82.2077 21.5224 82.513 22.7979 82.513 24.2617C82.513 24.6808 82.4891 25.1121 82.4352 25.5676H82.4232ZM78.304 13.0309V16.1104L72.1013 13.4743V10L78.304 13.0309ZM77.9927 23.0834C77.9927 22.3181 77.7352 21.7107 77.2203 21.2551C76.7054 20.7996 76.0648 20.5748 75.2925 20.5748C74.5201 20.5748 73.9334 20.7935 73.4245 21.2247C72.9155 21.6621 72.6042 22.2755 72.4845 23.0773H77.9927V23.0834Z" fill="#3A0CA3"></path>
<path d="M93.5956 31.7806L89.219 25.6701V31.7806H84.8184V12.4531H89.219V23.1373L93.5717 17.2091H99.0021L93.0268 24.5221L99.05 31.7806H93.5896H93.5956Z" fill="#3A0CA3"></path>
<path d="M103.468 31.0773C102.342 30.4699 101.462 29.5953 100.816 28.4655C100.169 27.3358 99.8516 26.0116 99.8516 24.4931C99.8516 22.9746 100.175 21.6748 100.827 20.539C101.48 19.3971 102.372 18.5224 103.504 17.915C104.635 17.3076 105.905 17.0039 107.312 17.0039C108.719 17.0039 109.988 17.3076 111.119 17.915C112.251 18.5224 113.143 19.3971 113.796 20.539C114.448 21.6809 114.772 22.9989 114.772 24.4931C114.772 25.9873 114.442 27.3115 113.778 28.4473C113.119 29.5892 112.215 30.4639 111.078 31.0713C109.934 31.6787 108.659 31.9884 107.252 31.9884C105.845 31.9884 104.581 31.6847 103.456 31.0713L103.468 31.0773ZM109.419 27.1839C110.012 26.5583 110.305 25.6593 110.305 24.4931C110.305 23.3269 110.018 22.428 109.443 21.8024C108.868 21.1767 108.162 20.8609 107.318 20.8609C106.473 20.8609 105.749 21.1707 105.18 21.7902C104.611 22.4098 104.33 23.3087 104.33 24.4931C104.33 25.6776 104.611 26.5583 105.168 27.1839C105.725 27.8095 106.426 28.1254 107.264 28.1254C108.102 28.1254 108.82 27.8095 109.413 27.1839H109.419Z" fill="#3A0CA3"></path>
<path d="M33.0219 0H10.3494C4.6336 0 0 4.70076 0 10.4994V33.5006C0 39.2992 4.6336 44 10.3494 44H33.0219C38.7378 44 43.3714 39.2992 43.3714 33.5006V10.4994C43.3714 4.70076 38.7378 0 33.0219 0Z" fill="#3A0CA3"></path>
<path d="M13.7539 33.678C15.2286 34.4372 16.9003 34.8589 18.6639 34.8589C18.8345 34.8589 19.0096 34.8589 19.1759 34.8456V34.8589H25.5693C30.9257 34.8589 35.3017 30.6236 35.6256 25.274V11.8312C35.6256 10.9211 34.8991 10.1797 33.9977 10.1797H20.8038C19.9067 10.1797 19.1759 10.9166 19.1759 11.8312V24.6214C19.1759 26.819 18.4932 28.8478 17.3292 30.5171C16.4058 31.8401 15.1761 32.9277 13.7539 33.678Z" fill="#8C69F9"></path>
<path d="M19.172 21.2734H9.64531C8.59505 21.2734 7.74609 22.1347 7.74609 23.2002V23.7862C7.74609 28.1103 10.1923 31.8572 13.7545 33.6819C15.1767 32.9316 16.4064 31.8439 17.3297 30.5209C18.4237 28.9582 19.0889 27.0759 19.172 25.0337C19.1764 24.8961 19.1808 24.7629 19.1808 24.6253V21.2734H19.172Z" fill="#4CC9F0"></path>
<path d="M26.2644 30.2111C28.0263 30.2111 29.4545 28.7621 29.4545 26.9747C29.4545 25.1873 28.0263 23.7383 26.2644 23.7383C24.5025 23.7383 23.0742 25.1873 23.0742 26.9747C23.0742 28.7621 24.5025 30.2111 26.2644 30.2111Z" fill="white"></path>
</svg>